<mxfile host="app.diagrams.net" agent="Mozilla/5.0 (Windows NT 10.0; Win64; x64) AppleWebKit/537.36 (KHTML, like Gecko) Chrome/140.0.0.0 Safari/537.36" version="28.2.5">
  <diagram name="PÃ¡gina-1" id="HmZXSCmAwiPACwrm2mMe">
    <mxGraphModel dx="2316" dy="939" grid="1" gridSize="10" guides="1" tooltips="1" connect="1" arrows="1" fold="1" page="1" pageScale="1" pageWidth="827" pageHeight="1169" math="0" shadow="0">
      <root>
        <mxCell id="0" />
        <mxCell id="1" parent="0" />
        <mxCell id="7uE2SbhGrvdXFYAGjGFk-4" value="Conducir" style="rhombus;whiteSpace=wrap;html=1;" parent="1" vertex="1">
          <mxGeometry x="190" y="185" width="120" height="80" as="geometry" />
        </mxCell>
        <mxCell id="7uE2SbhGrvdXFYAGjGFk-5" value="Distribuye" style="rhombus;whiteSpace=wrap;html=1;" parent="1" vertex="1">
          <mxGeometry x="520" y="190" width="120" height="80" as="geometry" />
        </mxCell>
        <mxCell id="7uE2SbhGrvdXFYAGjGFk-10" value="N:M" style="text;html=1;align=center;verticalAlign=middle;resizable=0;points=[];autosize=1;strokeColor=none;fillColor=none;" parent="1" vertex="1">
          <mxGeometry x="220" y="156" width="50" height="30" as="geometry" />
        </mxCell>
        <mxCell id="7uE2SbhGrvdXFYAGjGFk-12" value="1:N" style="text;html=1;align=center;verticalAlign=middle;resizable=0;points=[];autosize=1;strokeColor=none;fillColor=none;" parent="1" vertex="1">
          <mxGeometry x="471" y="197" width="40" height="30" as="geometry" />
        </mxCell>
        <mxCell id="7uE2SbhGrvdXFYAGjGFk-13" value="0:1" style="text;html=1;align=center;verticalAlign=middle;resizable=0;points=[];autosize=1;strokeColor=none;fillColor=none;" parent="1" vertex="1">
          <mxGeometry x="640" y="198" width="40" height="30" as="geometry" />
        </mxCell>
        <mxCell id="7uE2SbhGrvdXFYAGjGFk-17" value="" style="verticalLabelPosition=bottom;verticalAlign=top;html=1;shape=mxgraph.basic.rect;fillColor2=none;strokeWidth=1;size=20;indent=0;" parent="1" vertex="1">
          <mxGeometry x="70" y="202" width="90" height="40" as="geometry" />
        </mxCell>
        <mxCell id="7uE2SbhGrvdXFYAGjGFk-19" value="" style="verticalLabelPosition=bottom;verticalAlign=top;html=1;shape=mxgraph.basic.rect;fillColor2=none;strokeWidth=1;size=20;indent=5;" parent="1" vertex="1">
          <mxGeometry x="368.5" y="205" width="90" height="40" as="geometry" />
        </mxCell>
        <mxCell id="7uE2SbhGrvdXFYAGjGFk-20" value="Camionero" style="text;html=1;align=center;verticalAlign=middle;resizable=0;points=[];autosize=1;strokeColor=none;fillColor=none;" parent="1" vertex="1">
          <mxGeometry x="373.5" y="210" width="80" height="30" as="geometry" />
        </mxCell>
        <mxCell id="7uE2SbhGrvdXFYAGjGFk-22" value="" style="verticalLabelPosition=bottom;verticalAlign=top;html=1;shape=mxgraph.basic.rect;fillColor2=none;strokeWidth=1;size=20;indent=5;" parent="1" vertex="1">
          <mxGeometry x="690" y="204.5" width="130" height="45" as="geometry" />
        </mxCell>
        <mxCell id="7uE2SbhGrvdXFYAGjGFk-23" value="Paquete" style="text;html=1;align=center;verticalAlign=middle;resizable=0;points=[];autosize=1;strokeColor=none;fillColor=none;" parent="1" vertex="1">
          <mxGeometry x="720" y="212" width="70" height="30" as="geometry" />
        </mxCell>
        <mxCell id="7uE2SbhGrvdXFYAGjGFk-24" value="&lt;u&gt;matricula&lt;/u&gt;" style="ellipse;whiteSpace=wrap;html=1;" parent="1" vertex="1">
          <mxGeometry x="40" y="130" width="90" height="42" as="geometry" />
        </mxCell>
        <mxCell id="7uE2SbhGrvdXFYAGjGFk-26" value="&lt;u&gt;cedula&lt;/u&gt;" style="ellipse;whiteSpace=wrap;html=1;" parent="1" vertex="1">
          <mxGeometry x="324" y="130" width="90" height="42" as="geometry" />
        </mxCell>
        <mxCell id="7uE2SbhGrvdXFYAGjGFk-27" value="direccion" style="ellipse;whiteSpace=wrap;html=1;" parent="1" vertex="1">
          <mxGeometry x="369" y="290" width="90" height="42" as="geometry" />
        </mxCell>
        <mxCell id="7uE2SbhGrvdXFYAGjGFk-28" value="&lt;u&gt;codigo_paquete&lt;/u&gt;" style="ellipse;whiteSpace=wrap;html=1;" parent="1" vertex="1">
          <mxGeometry x="650" y="120" width="90" height="42" as="geometry" />
        </mxCell>
        <mxCell id="7uE2SbhGrvdXFYAGjGFk-29" value="descripcion" style="ellipse;whiteSpace=wrap;html=1;" parent="1" vertex="1">
          <mxGeometry x="700" y="270" width="90" height="42" as="geometry" />
        </mxCell>
        <mxCell id="7uE2SbhGrvdXFYAGjGFk-37" value="&lt;b&gt;&lt;font style=&quot;font-size: 14px;&quot; face=&quot;Times New Roman&quot;&gt;&lt;font style=&quot;vertical-align: inherit;&quot; dir=&quot;auto&quot;&gt;&lt;font style=&quot;vertical-align: inherit;&quot; dir=&quot;auto&quot;&gt;&lt;font style=&quot;vertical-align: inherit;&quot; dir=&quot;auto&quot;&gt;&lt;font style=&quot;vertical-align: inherit;&quot; dir=&quot;auto&quot;&gt;Problemas: 3&lt;/font&gt;&lt;/font&gt;&lt;/font&gt;&lt;/font&gt;&lt;/font&gt;&lt;/b&gt;" style="text;html=1;align=center;verticalAlign=middle;resizable=0;points=[];autosize=1;strokeColor=none;fillColor=none;" parent="1" vertex="1">
          <mxGeometry x="340" y="38" width="100" height="30" as="geometry" />
        </mxCell>
        <mxCell id="7uE2SbhGrvdXFYAGjGFk-41" value="" style="endArrow=none;html=1;rounded=0;exitX=0.989;exitY=0.438;exitDx=0;exitDy=0;exitPerimeter=0;entryX=0;entryY=0.5;entryDx=0;entryDy=0;" parent="1" source="7uE2SbhGrvdXFYAGjGFk-17" target="7uE2SbhGrvdXFYAGjGFk-4" edge="1">
          <mxGeometry width="50" height="50" relative="1" as="geometry">
            <mxPoint x="360" y="220" as="sourcePoint" />
            <mxPoint x="410" y="170" as="targetPoint" />
          </mxGeometry>
        </mxCell>
        <mxCell id="7uE2SbhGrvdXFYAGjGFk-44" value="" style="endArrow=none;html=1;rounded=0;exitX=0.946;exitY=0.506;exitDx=0;exitDy=0;exitPerimeter=0;entryX=-0.078;entryY=0.575;entryDx=0;entryDy=0;entryPerimeter=0;" parent="1" edge="1">
          <mxGeometry width="50" height="50" relative="1" as="geometry">
            <mxPoint x="310.52" y="225.48000000000002" as="sourcePoint" />
            <mxPoint x="368.48" y="228" as="targetPoint" />
          </mxGeometry>
        </mxCell>
        <mxCell id="7uE2SbhGrvdXFYAGjGFk-46" value="" style="endArrow=none;html=1;rounded=0;exitX=1.011;exitY=0.463;exitDx=0;exitDy=0;exitPerimeter=0;" parent="1" source="7uE2SbhGrvdXFYAGjGFk-19" target="7uE2SbhGrvdXFYAGjGFk-5" edge="1">
          <mxGeometry width="50" height="50" relative="1" as="geometry">
            <mxPoint x="476" y="130" as="sourcePoint" />
            <mxPoint x="526" y="80" as="targetPoint" />
          </mxGeometry>
        </mxCell>
        <mxCell id="7uE2SbhGrvdXFYAGjGFk-47" value="" style="endArrow=none;html=1;rounded=0;exitX=1;exitY=0.5;exitDx=0;exitDy=0;" parent="1" source="7uE2SbhGrvdXFYAGjGFk-5" edge="1">
          <mxGeometry width="50" height="50" relative="1" as="geometry">
            <mxPoint x="480" y="118" as="sourcePoint" />
            <mxPoint x="690" y="228" as="targetPoint" />
          </mxGeometry>
        </mxCell>
        <mxCell id="7uE2SbhGrvdXFYAGjGFk-48" value="" style="endArrow=none;html=1;rounded=0;entryX=1;entryY=1;entryDx=0;entryDy=0;" parent="1" source="7uE2SbhGrvdXFYAGjGFk-17" target="7uE2SbhGrvdXFYAGjGFk-24" edge="1">
          <mxGeometry width="50" height="50" relative="1" as="geometry">
            <mxPoint x="210" y="130" as="sourcePoint" />
            <mxPoint x="260" y="80" as="targetPoint" />
          </mxGeometry>
        </mxCell>
        <mxCell id="7uE2SbhGrvdXFYAGjGFk-54" value="" style="endArrow=none;html=1;rounded=0;entryX=0.606;entryY=1.012;entryDx=0;entryDy=0;entryPerimeter=0;exitX=0.379;exitY=-0.133;exitDx=0;exitDy=0;exitPerimeter=0;" parent="1" source="7uE2SbhGrvdXFYAGjGFk-20" target="7uE2SbhGrvdXFYAGjGFk-26" edge="1">
          <mxGeometry width="50" height="50" relative="1" as="geometry">
            <mxPoint x="380" y="259" as="sourcePoint" />
            <mxPoint x="381" y="220" as="targetPoint" />
          </mxGeometry>
        </mxCell>
        <mxCell id="7uE2SbhGrvdXFYAGjGFk-55" value="" style="endArrow=none;html=1;rounded=0;entryX=0.211;entryY=1.075;entryDx=0;entryDy=0;entryPerimeter=0;exitX=0.5;exitY=0;exitDx=0;exitDy=0;" parent="1" source="7uE2SbhGrvdXFYAGjGFk-27" target="7uE2SbhGrvdXFYAGjGFk-19" edge="1">
          <mxGeometry width="50" height="50" relative="1" as="geometry">
            <mxPoint x="300" y="359" as="sourcePoint" />
            <mxPoint x="301" y="320" as="targetPoint" />
          </mxGeometry>
        </mxCell>
        <mxCell id="7uE2SbhGrvdXFYAGjGFk-56" value="" style="endArrow=none;html=1;rounded=0;entryX=0.583;entryY=0.988;entryDx=0;entryDy=0;entryPerimeter=0;exitX=0.281;exitY=0;exitDx=0;exitDy=0;exitPerimeter=0;" parent="1" source="7uE2SbhGrvdXFYAGjGFk-22" target="7uE2SbhGrvdXFYAGjGFk-28" edge="1">
          <mxGeometry width="50" height="50" relative="1" as="geometry">
            <mxPoint x="630" y="389" as="sourcePoint" />
            <mxPoint x="631" y="350" as="targetPoint" />
          </mxGeometry>
        </mxCell>
        <mxCell id="7uE2SbhGrvdXFYAGjGFk-57" value="" style="endArrow=none;html=1;rounded=0;entryX=0.277;entryY=1;entryDx=0;entryDy=0;entryPerimeter=0;exitX=0.5;exitY=0;exitDx=0;exitDy=0;" parent="1" source="7uE2SbhGrvdXFYAGjGFk-29" target="7uE2SbhGrvdXFYAGjGFk-22" edge="1">
          <mxGeometry width="50" height="50" relative="1" as="geometry">
            <mxPoint x="650" y="439" as="sourcePoint" />
            <mxPoint x="651" y="400" as="targetPoint" />
          </mxGeometry>
        </mxCell>
        <mxCell id="MPO1pnTU34HU-1POk6kd-1" value="modelo" style="ellipse;whiteSpace=wrap;html=1;" parent="1" vertex="1">
          <mxGeometry x="-60" y="290" width="90" height="42" as="geometry" />
        </mxCell>
        <mxCell id="MPO1pnTU34HU-1POk6kd-2" value="potencia" style="ellipse;whiteSpace=wrap;html=1;" parent="1" vertex="1">
          <mxGeometry x="-80" y="212" width="90" height="42" as="geometry" />
        </mxCell>
        <mxCell id="MPO1pnTU34HU-1POk6kd-3" value="tipo" style="ellipse;whiteSpace=wrap;html=1;" parent="1" vertex="1">
          <mxGeometry x="-80" y="143" width="90" height="42" as="geometry" />
        </mxCell>
        <mxCell id="MPO1pnTU34HU-1POk6kd-5" value="" style="endArrow=none;html=1;rounded=0;entryX=0.022;entryY=0.038;entryDx=0;entryDy=0;exitX=1;exitY=0.5;exitDx=0;exitDy=0;entryPerimeter=0;" parent="1" source="MPO1pnTU34HU-1POk6kd-3" target="7uE2SbhGrvdXFYAGjGFk-17" edge="1">
          <mxGeometry width="50" height="50" relative="1" as="geometry">
            <mxPoint x="110" y="229" as="sourcePoint" />
            <mxPoint x="111" y="190" as="targetPoint" />
          </mxGeometry>
        </mxCell>
        <mxCell id="MPO1pnTU34HU-1POk6kd-7" value="" style="endArrow=none;html=1;rounded=0;entryX=-0.039;entryY=0.45;entryDx=0;entryDy=0;entryPerimeter=0;exitX=1;exitY=0.5;exitDx=0;exitDy=0;" parent="1" source="MPO1pnTU34HU-1POk6kd-2" target="7uE2SbhGrvdXFYAGjGFk-17" edge="1">
          <mxGeometry width="50" height="50" relative="1" as="geometry">
            <mxPoint x="30" y="319" as="sourcePoint" />
            <mxPoint x="31" y="280" as="targetPoint" />
          </mxGeometry>
        </mxCell>
        <mxCell id="MPO1pnTU34HU-1POk6kd-8" value="" style="endArrow=none;html=1;rounded=0;entryX=-0.044;entryY=1.013;entryDx=0;entryDy=0;entryPerimeter=0;exitX=1;exitY=0;exitDx=0;exitDy=0;" parent="1" source="MPO1pnTU34HU-1POk6kd-1" target="7uE2SbhGrvdXFYAGjGFk-17" edge="1">
          <mxGeometry width="50" height="50" relative="1" as="geometry">
            <mxPoint x="90" y="469" as="sourcePoint" />
            <mxPoint x="91" y="430" as="targetPoint" />
          </mxGeometry>
        </mxCell>
        <mxCell id="MPO1pnTU34HU-1POk6kd-10" value="nombre" style="ellipse;whiteSpace=wrap;html=1;" parent="1" vertex="1">
          <mxGeometry x="430" y="143" width="90" height="42" as="geometry" />
        </mxCell>
        <mxCell id="MPO1pnTU34HU-1POk6kd-11" value="telefono" style="ellipse;whiteSpace=wrap;html=1;" parent="1" vertex="1">
          <mxGeometry x="270" y="290" width="90" height="42" as="geometry" />
        </mxCell>
        <mxCell id="MPO1pnTU34HU-1POk6kd-12" value="" style="endArrow=none;html=1;rounded=0;entryX=0.028;entryY=0.95;entryDx=0;entryDy=0;entryPerimeter=0;exitX=0.5;exitY=0;exitDx=0;exitDy=0;" parent="1" source="MPO1pnTU34HU-1POk6kd-11" target="7uE2SbhGrvdXFYAGjGFk-19" edge="1">
          <mxGeometry width="50" height="50" relative="1" as="geometry">
            <mxPoint x="390" y="370" as="sourcePoint" />
            <mxPoint x="440" y="320" as="targetPoint" />
          </mxGeometry>
        </mxCell>
        <mxCell id="MPO1pnTU34HU-1POk6kd-14" value="" style="endArrow=none;html=1;rounded=0;entryX=0;entryY=1;entryDx=0;entryDy=0;exitX=0.9;exitY=-0.15;exitDx=0;exitDy=0;exitPerimeter=0;" parent="1" source="7uE2SbhGrvdXFYAGjGFk-20" target="MPO1pnTU34HU-1POk6kd-10" edge="1">
          <mxGeometry width="50" height="50" relative="1" as="geometry">
            <mxPoint x="340" y="317" as="sourcePoint" />
            <mxPoint x="396" y="270" as="targetPoint" />
          </mxGeometry>
        </mxCell>
        <mxCell id="MPO1pnTU34HU-1POk6kd-19" value="direccion" style="ellipse;whiteSpace=wrap;html=1;" parent="1" vertex="1">
          <mxGeometry x="760" y="130" width="90" height="42" as="geometry" />
        </mxCell>
        <mxCell id="MPO1pnTU34HU-1POk6kd-20" value="destinatario" style="ellipse;whiteSpace=wrap;html=1;" parent="1" vertex="1">
          <mxGeometry x="820" y="254" width="90" height="42" as="geometry" />
        </mxCell>
        <mxCell id="MPO1pnTU34HU-1POk6kd-24" value="" style="endArrow=none;html=1;rounded=0;entryX=0.669;entryY=0.033;entryDx=0;entryDy=0;entryPerimeter=0;exitX=0.5;exitY=1;exitDx=0;exitDy=0;" parent="1" source="MPO1pnTU34HU-1POk6kd-19" target="7uE2SbhGrvdXFYAGjGFk-22" edge="1">
          <mxGeometry width="50" height="50" relative="1" as="geometry">
            <mxPoint x="725" y="264" as="sourcePoint" />
            <mxPoint x="700" y="220" as="targetPoint" />
          </mxGeometry>
        </mxCell>
        <mxCell id="MPO1pnTU34HU-1POk6kd-25" value="" style="endArrow=none;html=1;rounded=0;entryX=0.942;entryY=0.922;entryDx=0;entryDy=0;entryPerimeter=0;exitX=0;exitY=0;exitDx=0;exitDy=0;" parent="1" source="MPO1pnTU34HU-1POk6kd-20" target="7uE2SbhGrvdXFYAGjGFk-22" edge="1">
          <mxGeometry width="50" height="50" relative="1" as="geometry">
            <mxPoint x="815" y="474" as="sourcePoint" />
            <mxPoint x="790" y="430" as="targetPoint" />
          </mxGeometry>
        </mxCell>
        <mxCell id="fGVBp2NKrRAsAavN9bsR-2" value="Camion" style="text;html=1;align=center;verticalAlign=middle;whiteSpace=wrap;rounded=0;" parent="1" vertex="1">
          <mxGeometry x="85" y="207" width="60" height="30" as="geometry" />
        </mxCell>
        <mxCell id="fGVBp2NKrRAsAavN9bsR-53" value="fecha" style="ellipse;whiteSpace=wrap;html=1;" parent="1" vertex="1">
          <mxGeometry x="130" y="290" width="90" height="42" as="geometry" />
        </mxCell>
        <mxCell id="fGVBp2NKrRAsAavN9bsR-54" value="" style="endArrow=none;html=1;rounded=0;exitX=0.5;exitY=0;exitDx=0;exitDy=0;entryX=0;entryY=1;entryDx=0;entryDy=0;" parent="1" source="fGVBp2NKrRAsAavN9bsR-53" target="7uE2SbhGrvdXFYAGjGFk-4" edge="1">
          <mxGeometry width="50" height="50" relative="1" as="geometry">
            <mxPoint x="360" y="290" as="sourcePoint" />
            <mxPoint x="410" y="240" as="targetPoint" />
          </mxGeometry>
        </mxCell>
        <mxCell id="fGVBp2NKrRAsAavN9bsR-55" value="salario" style="ellipse;whiteSpace=wrap;html=1;" parent="1" vertex="1">
          <mxGeometry x="453.5" y="254" width="90" height="42" as="geometry" />
        </mxCell>
        <mxCell id="fGVBp2NKrRAsAavN9bsR-56" value="poblacion" style="ellipse;whiteSpace=wrap;html=1;" parent="1" vertex="1">
          <mxGeometry x="234" y="100" width="90" height="42" as="geometry" />
        </mxCell>
        <mxCell id="fGVBp2NKrRAsAavN9bsR-57" value="" style="endArrow=none;html=1;rounded=0;entryX=1;entryY=1;entryDx=0;entryDy=0;exitX=0;exitY=0.238;exitDx=0;exitDy=0;exitPerimeter=0;" parent="1" source="7uE2SbhGrvdXFYAGjGFk-19" target="fGVBp2NKrRAsAavN9bsR-56" edge="1">
          <mxGeometry width="50" height="50" relative="1" as="geometry">
            <mxPoint x="340" y="317" as="sourcePoint" />
            <mxPoint x="396" y="270" as="targetPoint" />
          </mxGeometry>
        </mxCell>
        <mxCell id="fGVBp2NKrRAsAavN9bsR-58" value="" style="endArrow=none;html=1;rounded=0;entryX=0;entryY=0.5;entryDx=0;entryDy=0;exitX=0.717;exitY=1.013;exitDx=0;exitDy=0;exitPerimeter=0;" parent="1" source="7uE2SbhGrvdXFYAGjGFk-19" target="fGVBp2NKrRAsAavN9bsR-55" edge="1">
          <mxGeometry width="50" height="50" relative="1" as="geometry">
            <mxPoint x="340" y="447" as="sourcePoint" />
            <mxPoint x="396" y="400" as="targetPoint" />
          </mxGeometry>
        </mxCell>
        <mxCell id="fGVBp2NKrRAsAavN9bsR-60" value="Llegar" style="rhombus;whiteSpace=wrap;html=1;" parent="1" vertex="1">
          <mxGeometry x="890" y="160" width="120" height="80" as="geometry" />
        </mxCell>
        <mxCell id="fGVBp2NKrRAsAavN9bsR-61" value="" style="verticalLabelPosition=bottom;verticalAlign=top;html=1;shape=mxgraph.basic.rect;fillColor2=none;strokeWidth=1;size=20;indent=5;" parent="1" vertex="1">
          <mxGeometry x="1060" y="167" width="130" height="45" as="geometry" />
        </mxCell>
        <mxCell id="fGVBp2NKrRAsAavN9bsR-62" value="" style="endArrow=none;html=1;rounded=0;entryX=1;entryY=0.444;entryDx=0;entryDy=0;entryPerimeter=0;exitX=0;exitY=0.5;exitDx=0;exitDy=0;" parent="1" edge="1">
          <mxGeometry width="50" height="50" relative="1" as="geometry">
            <mxPoint x="890" y="202" as="sourcePoint" />
            <mxPoint x="820" y="226.48000000000002" as="targetPoint" />
          </mxGeometry>
        </mxCell>
        <mxCell id="fGVBp2NKrRAsAavN9bsR-63" value="" style="endArrow=none;html=1;rounded=0;entryX=1;entryY=0.5;entryDx=0;entryDy=0;exitX=0.004;exitY=0.556;exitDx=0;exitDy=0;exitPerimeter=0;" parent="1" source="fGVBp2NKrRAsAavN9bsR-61" target="fGVBp2NKrRAsAavN9bsR-60" edge="1">
          <mxGeometry width="50" height="50" relative="1" as="geometry">
            <mxPoint x="949" y="300" as="sourcePoint" />
            <mxPoint x="930" y="280" as="targetPoint" />
          </mxGeometry>
        </mxCell>
        <mxCell id="fGVBp2NKrRAsAavN9bsR-64" value="0:1" style="text;html=1;align=center;verticalAlign=middle;resizable=0;points=[];autosize=1;strokeColor=none;fillColor=none;" parent="1" vertex="1">
          <mxGeometry x="845" y="210" width="40" height="30" as="geometry" />
        </mxCell>
        <mxCell id="fGVBp2NKrRAsAavN9bsR-66" value="0:N" style="text;html=1;align=center;verticalAlign=middle;resizable=0;points=[];autosize=1;strokeColor=none;fillColor=none;" parent="1" vertex="1">
          <mxGeometry x="1010" y="202" width="40" height="30" as="geometry" />
        </mxCell>
        <mxCell id="fGVBp2NKrRAsAavN9bsR-67" value="Provincia" style="text;html=1;align=center;verticalAlign=middle;whiteSpace=wrap;rounded=0;" parent="1" vertex="1">
          <mxGeometry x="1095" y="177" width="60" height="30" as="geometry" />
        </mxCell>
        <mxCell id="fGVBp2NKrRAsAavN9bsR-69" value="&lt;u&gt;codigo_provincia&lt;/u&gt;" style="ellipse;whiteSpace=wrap;html=1;" parent="1" vertex="1">
          <mxGeometry x="1080" y="101" width="90" height="42" as="geometry" />
        </mxCell>
        <mxCell id="fGVBp2NKrRAsAavN9bsR-70" value="nombre" style="ellipse;whiteSpace=wrap;html=1;" parent="1" vertex="1">
          <mxGeometry x="1196" y="118" width="90" height="42" as="geometry" />
        </mxCell>
        <mxCell id="fGVBp2NKrRAsAavN9bsR-72" value="" style="endArrow=none;html=1;rounded=0;entryX=0.5;entryY=1;entryDx=0;entryDy=0;exitX=0.504;exitY=-0.011;exitDx=0;exitDy=0;exitPerimeter=0;" parent="1" source="fGVBp2NKrRAsAavN9bsR-61" target="fGVBp2NKrRAsAavN9bsR-69" edge="1">
          <mxGeometry width="50" height="50" relative="1" as="geometry">
            <mxPoint x="820" y="290" as="sourcePoint" />
            <mxPoint x="870" y="240" as="targetPoint" />
          </mxGeometry>
        </mxCell>
        <mxCell id="fGVBp2NKrRAsAavN9bsR-75" value="" style="endArrow=none;html=1;rounded=0;entryX=0.5;entryY=1;entryDx=0;entryDy=0;" parent="1" target="fGVBp2NKrRAsAavN9bsR-70" edge="1">
          <mxGeometry width="50" height="50" relative="1" as="geometry">
            <mxPoint x="1190" y="180" as="sourcePoint" />
            <mxPoint x="870" y="240" as="targetPoint" />
          </mxGeometry>
        </mxCell>
        <mxCell id="fGVBp2NKrRAsAavN9bsR-76" value="0:N" style="text;html=1;align=center;verticalAlign=middle;resizable=0;points=[];autosize=1;strokeColor=none;fillColor=none;" parent="1" vertex="1">
          <mxGeometry x="310" y="198" width="40" height="30" as="geometry" />
        </mxCell>
        <mxCell id="fGVBp2NKrRAsAavN9bsR-77" value="0:N" style="text;html=1;align=center;verticalAlign=middle;resizable=0;points=[];autosize=1;strokeColor=none;fillColor=none;" parent="1" vertex="1">
          <mxGeometry x="160" y="190" width="40" height="30" as="geometry" />
        </mxCell>
      </root>
    </mxGraphModel>
  </diagram>
</mxfile>
